<?xml version="1.0" encoding="utf-8"?>
<!-- Generator: Adobe Illustrator 23.0.1, SVG Export Plug-In . SVG Version: 6.00 Build 0)  -->
<svg version="1.1" id="Camada_1" xmlns="http://www.w3.org/2000/svg" xmlns:xlink="http://www.w3.org/1999/xlink" x="0px" y="0px"
	 viewBox="0 0 44.9 46.9" style="enable-background:new 0 0 44.9 46.9;" xml:space="preserve">
<style type="text/css">
	.st0{clip-path:url(#SVGID_2_);fill:#4D4D4D;}
</style>
<g>
	<defs>
		<rect id="SVGID_1_" y="0" width="44.9" height="46.9"/>
	</defs>
	<clipPath id="SVGID_2_">
		<use xlink:href="#SVGID_1_"  style="overflow:visible;"/>
	</clipPath>
	<path class="st0" d="M42.3,46.9c-0.6,0-1.2-0.3-1.7-0.9c-0.1-0.1-0.3-0.3-0.5-0.6c-0.7-0.9-1.8-2.3-3.3-2.5c-0.1,0-0.3,0-0.4,0
		c-1.5,0-2.4,1.1-2.8,1.8c-0.5,0.8-1.8,2.2-4.2,2.2c-2.4,0-3.6-1.4-4.2-2.2c-0.4-0.7-1.4-1.8-2.8-1.8c-0.1,0-0.3,0-0.4,0
		c-1.4,0.2-2.5,1.6-3.3,2.5c-0.2,0.2-0.3,0.4-0.5,0.6c-0.5,0.6-1.1,0.9-1.7,0.9c-0.2,0-0.5,0-0.7-0.1c-0.6-0.2-1.9-1.1-1.9-4.3
		c0-0.2,0.1-0.3,0.2-0.4c5.7-3.2,6.3-11.4,6.6-15.8l0.1-0.8c0.2-2.7,1.8-5.1,4.2-6.4l0.5-0.3l-0.2-0.5c-0.3-0.6-0.4-1.2-0.4-1.9
		c0-2.1,1.5-3.9,3.5-4.3L29,12V6.1c0-3.6-1.5-5.3-4.6-5.3c-3,0-4.4,2.5-6.1,6.3c-1.5,3.4-3.1,6.8-6.9,6.8H6.9v1.4
		c0,0.2-0.2,0.4-0.4,0.4H4.9v3.6c0,1.3-1.1,2.4-2.4,2.4h-2c-0.2,0-0.4-0.2-0.4-0.4v-16C0,5.2,0.2,5,0.4,5h2c1.3,0,2.4,1.1,2.4,2.4
		V11h1.6c0.2,0,0.4,0.2,0.4,0.4v1.7h4.6c3,0,4.4-2.5,6.1-6.3C19.1,3.5,20.7,0,24.4,0c3.6,0,5.4,2.1,5.4,6.1V12l0.5,0.1
		c2.1,0.4,3.5,2.2,3.5,4.3c0,0.6-0.1,1.3-0.4,1.9l-0.2,0.5l0.5,0.3c2.4,1.3,4,3.7,4.2,6.4l0.1,0.8c0.3,4.4,0.9,12.6,6.6,15.8
		c0.1,0.1,0.2,0.2,0.2,0.4c0,3.2-1.3,4.1-1.9,4.3C42.8,46.8,42.5,46.9,42.3,46.9 M29.4,12.9c-2,0-3.6,1.6-3.6,3.6
		c0,1,0.5,1.8,0.8,2.3c0.1,0.1,0.1,0.3,0.1,0.4c0,0.1-0.1,0.2-0.3,0.3c-2.7,1-4.5,3.3-4.7,6.1l-0.1,0.8c-0.3,4.4-0.9,12.6-6.6,16.2
		l-0.3,0.2l0,0.3c0.1,2.3,1,2.8,1.3,2.9c0.1,0,0.2,0.1,0.4,0.1c0.5,0,0.9-0.3,1.1-0.6c0.1-0.1,0.2-0.3,0.3-0.4l0.1-0.1
		c0.8-1,2-2.6,3.8-2.8c0.2,0,0.4,0,0.6,0c2,0,3.1,1.5,3.6,2.2c0.5,0.8,1.6,1.8,3.4,1.8c1.9,0,2.9-1,3.4-1.8c0.4-0.7,1.6-2.2,3.6-2.2
		c0.2,0,0.4,0,0.6,0c1.8,0.3,3.1,1.9,3.8,2.8l0.1,0.1c0.1,0.2,0.2,0.3,0.3,0.4c0.2,0.2,0.6,0.6,1.1,0.6c0.1,0,0.2,0,0.3-0.1
		c0.3-0.1,1.2-0.6,1.3-2.9l0-0.3l-0.3-0.2c-5.7-3.6-6.3-11.8-6.6-16.2l-0.1-0.8c-0.2-2.8-2-5.1-4.7-6.1c-0.1,0-0.2-0.2-0.3-0.3
		c0-0.1,0-0.3,0.1-0.4c0.4-0.5,0.8-1.2,0.8-2.3C33,14.5,31.4,12.9,29.4,12.9 M0.9,21h1.6C3.3,21,4,20.3,4,19.4v-12
		c0-0.9-0.7-1.6-1.6-1.6H0.9V21z"/>
</g>
</svg>
