<?xml version="1.0" encoding="utf-8"?>
<!-- Generator: Adobe Illustrator 23.0.1, SVG Export Plug-In . SVG Version: 6.00 Build 0)  -->
<svg version="1.1" id="Camada_1" xmlns="http://www.w3.org/2000/svg" xmlns:xlink="http://www.w3.org/1999/xlink" x="0px" y="0px"
	 viewBox="0 0 34.9 48.9" style="enable-background:new 0 0 34.9 48.9;" xml:space="preserve">
<style type="text/css">
	.st0{clip-path:url(#SVGID_2_);fill:#4D4D4D;}
</style>
<g>
	<defs>
		<rect id="SVGID_1_" y="0" width="34.9" height="48.9"/>
	</defs>
	<clipPath id="SVGID_2_">
		<use xlink:href="#SVGID_1_"  style="overflow:visible;"/>
	</clipPath>
	<path class="st0" d="M19,48.9v-4h-3.1v4H15v-4.2l-6.7-3.8l-0.1,0l0,0c-0.1,0-0.2-0.2-0.2-0.4v-3.9L3.1,16.9H0.4
		c-0.2,0-0.4-0.1-0.4-0.3c-0.1-0.2,0-0.4,0.2-0.5L13,8.2V4.4c0-0.1,0-0.2,0.1-0.3l4-4C17.2,0,17.3,0,17.4,0c0.1,0,0.2,0,0.3,0.1l4,4
		c0.1,0.1,0.1,0.2,0.1,0.3v3.8l12.8,7.9c0.2,0.1,0.2,0.3,0.2,0.5c-0.1,0.2-0.2,0.3-0.4,0.3h-2.7l-4.9,19.6v3.9
		c0,0.2-0.1,0.3-0.2,0.4l0,0l-0.1,0.1l-6.7,3.8v4.2H19z M15.5,44h3.8l5.5-3.1H10.1L15.5,44z M8.9,40H26v-3.1H8.9V40z M21.8,17.5
		L21.8,17.5l-2,18.5h6.3l4.8-19.1h-9V17.5z M15.9,35.4C15.9,35.4,15.8,35.4,15.9,35.4l0,0.6H19v-0.6l0-0.1l2.1-18.4h-7.3L15.9,35.4
		C15.9,35.4,15.9,35.4,15.9,35.4 M8.8,36h6.3L13,17.5c0,0,0,0,0,0c0,0,0,0,0-0.1v-0.6H4L8.8,36z M2,16h30.9L21.3,8.9h-7.8L2,16z
		 M13.9,8H21V4.9h-7.1V8z M14.5,4h5.9l-3-3L14.5,4z"/>
</g>
</svg>
