<?xml version="1.0" encoding="utf-8"?>
<!-- Generator: Adobe Illustrator 23.0.1, SVG Export Plug-In . SVG Version: 6.00 Build 0)  -->
<svg version="1.1" id="Camada_1" xmlns="http://www.w3.org/2000/svg" xmlns:xlink="http://www.w3.org/1999/xlink" x="0px" y="0px"
	 viewBox="0 0 186 205.3" style="enable-background:new 0 0 186 205.3;" xml:space="preserve">
<style type="text/css">
	.st0{clip-path:url(#SVGID_2_);fill:none;stroke:#000000;stroke-width:5.09;stroke-miterlimit:22.926;}
</style>
<g>
	<defs>
		<rect id="SVGID_1_" width="186" height="205.3"/>
	</defs>
	<clipPath id="SVGID_2_">
		<use xlink:href="#SVGID_1_"  style="overflow:visible;"/>
	</clipPath>
	<line class="st0" x1="183.4" y1="140.6" x2="183.4" y2="55.6"/>
	<path class="st0" d="M26.1,98.1C11.9,88.8,2.5,72.8,2.5,54.5c0-28.7,23.3-52,52-52s52,23.3,52,52c0,18.2-9.4,34.3-23.6,43.6"/>
	<path class="st0" d="M27,54.5C27,39.3,39.3,27,54.5,27"/>
	<path class="st0" d="M54.5,115H37.7c-10.3,0.1-15-10.2-14.7-19.1h31.5H86c0.3,8.9-4.4,19.1-14.7,19.1H54.5z"/>
	<path class="st0" d="M54.5,116v43.9c0,57.1,86.7,57.1,86.7,0v-40.8c0-19.1,14.5-28.6,29-28.6c4.2,0,8.5,0.8,12.4,2.5"/>
</g>
</svg>
