<?xml version="1.0" encoding="utf-8"?>
<!-- Generator: Adobe Illustrator 23.0.1, SVG Export Plug-In . SVG Version: 6.00 Build 0)  -->
<svg version="1.1" id="Camada_1" xmlns="http://www.w3.org/2000/svg" xmlns:xlink="http://www.w3.org/1999/xlink" x="0px" y="0px"
	 viewBox="0 0 37.9 48.9" style="enable-background:new 0 0 37.9 48.9;" xml:space="preserve">
<style type="text/css">
	.st0{fill:#4D4D4D;}
</style>
<g>
	<path class="st0" d="M0,48.9V22.4C0,10.1,10.1,0,22.4,0h12c1.3,0,2.4,1.1,2.4,2.4c0,1.1-0.7,2-1.7,2.3l-0.3,0.1l-0.1,0.3
		c-0.5,2.2-3.2,3.7-6.3,3.7s-5.8-1.6-6.3-3.7L22,4.8l-0.3-0.1c-1-0.3-1.7-1.2-1.7-2.3c0-0.2,0-0.4,0.1-0.6L20.3,1l-0.8,0.1
		C8.9,2.6,0.9,11.7,0.9,22.4v26.4H0z M23.3,5.7C24.1,7.1,26.2,8,28.4,8s4.3-0.9,5.2-2.3l0.5-0.9H22.7L23.3,5.7z M22.4,0.9
		c-0.9,0-1.6,0.7-1.6,1.6c0,0.9,0.7,1.6,1.6,1.6h12C35.3,4,36,3.3,36,2.4c0-0.9-0.7-1.6-1.6-1.6H22.4z"/>
	<path class="st0" d="M28.4,18.9c-0.2,0-0.4-0.2-0.4-0.4v-6c0-0.2,0.2-0.4,0.4-0.4c0.2,0,0.4,0.2,0.4,0.4v6
		C28.9,18.7,28.7,18.9,28.4,18.9"/>
	<path class="st0" d="M19.4,16.9c-0.1,0-0.2,0-0.2-0.1c-0.2-0.1-0.3-0.4-0.1-0.6l3-5c0.1-0.1,0.2-0.2,0.4-0.2c0.1,0,0.2,0,0.2,0.1
		c0.2,0.1,0.3,0.4,0.1,0.6l-3,5C19.7,16.8,19.6,16.9,19.4,16.9"/>
	<path class="st0" d="M37.4,16.9c-0.2,0-0.3-0.1-0.4-0.2l-3-5c-0.1-0.2-0.1-0.5,0.1-0.6c0.1,0,0.1-0.1,0.2-0.1
		c0.2,0,0.3,0.1,0.4,0.2l3,5c0.1,0.2,0.1,0.5-0.1,0.6C37.6,16.8,37.5,16.9,37.4,16.9"/>
</g>
</svg>
