<?xml version="1.0" encoding="utf-8"?>
<!-- Generator: Adobe Illustrator 23.0.1, SVG Export Plug-In . SVG Version: 6.00 Build 0)  -->
<svg version="1.1" id="Camada_1" xmlns="http://www.w3.org/2000/svg" xmlns:xlink="http://www.w3.org/1999/xlink" x="0px" y="0px"
	 viewBox="0 0 244 229.8" style="enable-background:new 0 0 244 229.8;" xml:space="preserve">
<style type="text/css">
	.st0{fill:none;stroke:#000000;stroke-width:5.09;stroke-miterlimit:22.926;}
	.st1{clip-path:url(#SVGID_2_);fill:none;stroke:#000000;stroke-width:5.09;stroke-miterlimit:22.926;}
</style>
<line class="st0" x1="122" y1="83.4" x2="122" y2="26.3"/>
<g>
	<defs>
		<rect id="SVGID_1_" width="244" height="229.8"/>
	</defs>
	<clipPath id="SVGID_2_">
		<use xlink:href="#SVGID_1_"  style="overflow:visible;"/>
	</clipPath>
	<path class="st1" d="M122,116.4c9.1,0,16.5-7.4,16.5-16.5c0-9.1-7.4-16.5-16.5-16.5c-9.1,0-16.5,7.4-16.5,16.5
		C105.5,109,112.9,116.4,122,116.4z"/>
	<line class="st1" x1="49.7" y1="140.9" x2="107" y2="106.8"/>
	<line class="st1" x1="194.3" y1="140.9" x2="137" y2="106.8"/>
	<path class="st1" d="M27.9,128.5c14,0,25.3,11.3,25.3,25.3s-11.3,25.3-25.3,25.3S2.5,167.9,2.5,153.9S13.9,128.5,27.9,128.5z"/>
	<path class="st1" d="M19.6,157.3c-0.5-1.1-0.7-2.3-0.7-3.5c0-5,4-9,9-9c1.2,0,2.4,0.3,3.5,0.7"/>
	<path class="st1" d="M83.1,176.5c14,0,25.3,11.4,25.3,25.4s-11.3,25.3-25.3,25.3s-25.4-11.3-25.4-25.3S69.1,176.5,83.1,176.5z"/>
	<path class="st1" d="M74.8,205.4c-0.5-1.1-0.7-2.3-0.7-3.5c0-5,4-9,9-9c1.2,0,2.4,0.3,3.5,0.7"/>
	<path class="st1" d="M152.7,205.4c-0.5-1.1-0.7-2.3-0.7-3.5c0-5,4-9,9-9c1.2,0,2.4,0.3,3.5,0.7"/>
	<path class="st1" d="M207.9,157.3c-0.5-1.1-0.7-2.3-0.7-3.5c0-5,4-9,9-9c1.2,0,2.4,0.3,3.5,0.7"/>
	<line class="st1" x1="92" y1="178.1" x2="114.8" y2="117.1"/>
	<line class="st1" x1="152.1" y1="178.1" x2="129.3" y2="117.1"/>
	<rect x="104.1" y="2.5" class="st1" width="35.8" height="24.1"/>
	<path class="st1" d="M161,176.5c14,0,25.3,11.4,25.3,25.4S175,227.2,161,227.2s-25.4-11.3-25.4-25.3S147,176.5,161,176.5z"/>
	<path class="st1" d="M216.1,128.5c14,0,25.3,11.3,25.3,25.3s-11.3,25.3-25.3,25.3c-14,0-25.4-11.3-25.4-25.3
		S202.1,128.5,216.1,128.5z"/>
</g>
</svg>
